<?xml version="1.0" encoding="utf-8"?>
<!-- Generator: Adobe Illustrator 21.1.0, SVG Export Plug-In . SVG Version: 6.00 Build 0)  -->
<svg version="1.1" xmlns="http://www.w3.org/2000/svg" xmlns:xlink="http://www.w3.org/1999/xlink" x="0px" y="0px"
	 viewBox="0 0 527.1 527.1" style="enable-background:new 0 0 527.1 527.1;" xml:space="preserve">
<style type="text/css">
	.st0{fill:#00FFFF;}
	.st1{fill:#FCEE21;}
	.st2{fill:#F2F2F2;}
	.st3{fill:#006837;}
	.st4{fill:#22B573;}
	.st5{fill:#FFFFFF;}
</style>
<g id="Layer_1">
	<path class="st0" d="M263.1,10.6c-142,0-257.1,114.2-257.1,255c0,60.5,21.3,116.1,56.8,159.8c0.3,0.3,0.6,0.6,0.8,0.9
		c5.8,7.1,12.1,14,18.6,20.4c0.6,0.5,1.1,1,1.7,1.4c12.9,11.1,26.5,21.1,40.3,31.1c2.8,2,5.6,4,8.5,6.1
		c38.2,22.4,82.8,35.3,130.5,35.3c142,0,254-114.2,254-255S405.1,10.6,263.1,10.6z M136.6,206.5c-4.6,2.1-11.5,0.5-16.2-0.1
		c-5.9-0.7-11.7-1.9-17.6-2.2c-12.2-0.8-25.1,0-37.2,1.8c-6.3,0.9-9-8.7-2.7-9.6c15-2.2,30.9-3.4,45.9-1.4
		c5.3,0.7,10.5,1.4,15.8,1.9c-2-3.1,0.7-8.7,5.6-7.9c4.3,0.8,8.8,3,10.2,7.5C141.5,200,140.1,204.8,136.6,206.5z M113.5,184.9
		c3.1-1.1,5.9-2.7,8.5-4.7c2.1-1.7,5-2.1,7.1,0c1.8,1.8,2.1,5.4,0,7.1c-4,3.1-8.1,5.6-12.9,7.3c-2.6,0.9-5.5-1-6.2-3.5
		C109.3,188.4,111,185.8,113.5,184.9z M169.5,163.4c-23.8-0.6-47.6-0.7-71.3-0.7c-6.4,0-6.4-10,0-10c21.9,0,43.7,0,65.6,0.5
		c0.7-0.4,1.5-0.6,2.4-0.5c1.6,0,3.1,0.3,4.7,0.8C176,155.4,175.4,163.6,169.5,163.4z M242.2,97.4c-6.4,0.2-6.4-9.8,0-10
		c25.6-0.6,51.2,1.3,76.7,3.3c6.4,0.5,6.4,10.5,0,10C293.4,98.8,267.8,96.8,242.2,97.4z M352.9,132.8c-15.2-2-30.9-2.8-46-0.2
		c-6.3,1.1-9-8.6-2.7-9.6c16.1-2.8,32.5-2.3,48.7-0.2C359.2,123.6,359.2,133.6,352.9,132.8z"/>
	<g id="Layer_3">
		<circle class="st1" cx="263.5" cy="234.5" r="54.7"/>
		<g>
			<g>
				<path class="st0" d="M131.1,153.1c-11.8,1.8-23.6,2.8-35.5,3.1c0,1,0,2,0,3c22.9-1.4,45.7-0.2,68.5,1.2c1.9,0.1,1.9-2.9,0-3
					c-22.8-1.3-45.7-2.6-68.5-1.2c-1.9,0.1-1.9,3,0,3c12.2-0.3,24.3-1.4,36.3-3.2C133.8,155.7,133,152.8,131.1,153.1L131.1,153.1z"
					/>
			</g>
		</g>
		<g>
			<g>
				<path class="st0" d="M136.3,150.5c-8.7-1.1-16.7,4.4-24.7,6.9c-2,0.6-4.7,1.8-6.7,1.8c-1.4,0.8-2.5,0.4-3.3-1.1
					c0-1.3,0-2.6,0-3.9c0.1-5.2,0.4-10.5,0.9-15.7c0.2-1.8-2.4-1.9-2.9-0.4c-5,13-9.7,26.2-14.2,39.4c-0.6,1.7,1.8,2.5,2.7,1.2
					c4.6-7.1,8-14.7,10.1-22.9c0.5-1.9-2.4-2.7-2.9-0.8c-2,8-5.3,15.3-9.8,22.2c0.9,0.4,1.8,0.8,2.7,1.2
					c4.5-13.2,9.2-26.3,14.2-39.4c-1-0.1-2-0.3-2.9-0.4c-0.6,6.5-1,13.1-0.9,19.6c0,3.1,0.2,4.7,3.5,4.7c12,0.1,22.4-10.8,34.3-9.2
					C138.3,153.8,138.2,150.8,136.3,150.5L136.3,150.5z"/>
			</g>
		</g>
		<g>
			<g>
				<path class="st0" d="M53.7,217.2c17.6,1.8,35.2,2.6,52.9,2.4c9-0.1,18.2-0.2,27.2-1.4c6.8-0.9,12.5-4.4,16.3-10.2
					c3.9-6,2.9-13.2,1.9-19.8c-2.7-18.9-16.5-33-36.3-31.7c-1.5,0.1-2.9,0.3-4.4,0.3c-1.7,0.1-5.3-0.3-1.6,0.4
					c-2.8-0.5,1.2,0.6,2.3,1.6c0.9,0.8,1.5,1.7,2,2.8c0.5,1.1,0.6,5.2,0.8,2.3c-0.1,2.4-0.8,4.7-2.6,6.4c-0.9,0.9-1.6,1.1-2.7,1.7
					c0.1-0.1,2.9-0.9,0.6-0.3c-2,0.5,0.2,0,0.7-0.1c0.8-0.1,1.7-0.1,2.5-0.1c2.6-0.1,5.1-0.2,7.7-0.3c8.7-0.2,17.3,0.1,26,0.6
					c10.5,0.6,19.7-2.3,27.1-10c11.4-12,18.9-27.4,22.1-43.6c0.6-3.1,1.2-6.2,1.9-9.3c0.4-1.6,0.8-3.3,1.3-4.8
					c0.2-0.7,0.5-1.3,0.7-2c-0.4,1.4-1.2,2.3-0.1,0.5c0.5-0.7,1-1.6,1.4-2.3c-0.2,0.4-2.1,2.1-0.7,1c0.5-0.4,1-1,1.5-1.4
					c-0.2,0.2-2.3,1.8-0.6,0.7c2-1.4-2.5,0.3-0.1,0.1c0.7-0.1,1.5-0.4,2.2-0.5c-0.4,0.1-3,0.1-1,0.2c1,0.1,2.1-0.1,3.1,0
					c0.5,0,3.9,0.2,1.6,0c-2.1-0.2,0.5,0.1,0.8,0.1c1.6,0.3,3.2,0.6,4.8,1c3.9,0.9,7.7,2,11.5,3c9.6,2.4,19.3,4.1,29.1,5.3
					c9.3,1.2,18.5,1.6,27.9,2.1c0.3,0,2.9,0.5,1,0.1c-2.6-0.6,3.9,1.4-0.4-0.3c0.7,0.3,1.4,0.7,2,1.1c0.3,0.2,3,2,1.4,0.8
					c-1.6-1.2,0.5,0.4,0.6,0.6c1,0.9,2,1.7,3,2.6c1.5,1.3,3,2.5,4.6,3.7c15.7,12.3,34.7,22.7,55.3,20.3c9-1,16.4-6.1,17.7-15.6
					c1.2-8.6-4.2-17.5-12.9-19.7c-23.6-6.1-48.2-6.1-71.9-0.2c6.8,8.8,13.6,17.6,20.3,26.4c1.1-1.6,2.2-3.3,3.4-4.9
					c0.5-0.7,1-1.4,1.5-2.1c-0.9,1.2-1,1.3-0.2,0.3c2.3-2.8,4.7-5.7,7.2-8.4c5-5.4,10.4-10.4,16.1-15.1c7.3-6,6.7-19.3,0-25.5
					c-7.8-7.2-17.6-6.4-25.5,0c-13.1,10.7-24.2,23.4-33.6,37.4c-4,5.9-2.7,14.6,1.4,20c4.4,5.8,11.8,8.2,18.9,6.5
					c2.4-0.6,4.8-1.2,7.2-1.6c0.6-0.1,7.4-1.1,4.4-0.8c4.9-0.6,9.9-0.9,14.8-0.8c4.9,0,9.9,0.3,14.8,0.9c-3.1-0.4,3.7,0.7,4.4,0.8
					c2.4,0.5,4.8,1.1,7.2,1.7c1.6-11.8,3.2-23.6,4.8-35.4c-3.3,0.4-6.5,0.5-9.8,0.1c4.2,0.5-1-0.4-1.6-0.5c-1.6-0.4-3.1-0.9-4.7-1.5
					c-3.3-1.1-1-0.4-0.3-0.1c-1.5-0.7-3-1.4-4.5-2.2c-3.5-1.9-6.7-4.1-10-6.4c-4.5-3.1,2.4,2.2-1.7-1.3c-0.8-0.7-1.7-1.4-2.6-2.1
					c-3.2-2.7-6.3-5.4-9.7-7.8c-7.4-5.1-15.7-6.7-24.5-7.1c-16.1-0.8-26-1.5-41.1-4.9c-14.6-3.4-29.3-8.8-44.5-5.5
					c-15.7,3.5-25.8,16.3-30,31.2c-1.5,5.1-2.2,10.5-3.4,15.7c-0.7,3.2-1.7,6.2-2.7,9.2c-1.6,4.8,1.7-2.8-0.8,1.7
					c-0.9,1.7-1.7,3.4-2.7,5.1c-0.7,1.2-1.4,2.3-2.2,3.5c-0.2,0.3-3.5,4.5-1.1,1.6c-1,1.2-2.2,2.3-3.2,3.6c-2.2,2.7,0.9-0.1,1.7-0.7
					c0.6-0.1,1.2-0.2,1.8-0.2c-0.8,0-1.5,0-2.3,0c-1.4,0-2.8-0.2-4.2-0.3c-4.5-0.3-9-0.4-13.5-0.5c-15.3-0.2-34.2-1.6-45.6,10.5
					c-14.7,15.6-5.3,42.7,15.5,46.3c4.7,0.8,8.8,0.7,13.5,0.4c1.5-0.1,2.9-0.1,4.4-0.2c-2.4-0.5-2.6-0.5-0.6,0
					c-0.6-0.3-1.2-0.5-1.8-0.8c-0.5-0.5-1.1-0.9-1.6-1.4c1.4,1.4,1.2,1.1-0.4-0.8c0.5,0.7,0.9,1.5,1.3,2.2c-0.9-2.3-1.1-2.5-0.4-0.6
					c0.3,1.3,0.6,2.7,0.9,4c0.3,2,0.3,1.8-0.1-0.7c0.1,1.8,0.2,1.8,0.4-0.2c1.5-2.6,3.1-5.3,4.6-7.9c4.7-4.9,12-3.7,5.4-3.3
					c-1.6,0.1-3.3,0.2-4.9,0.3c-3.3,0.2-6.5,0.3-9.8,0.4c-6.5,0.2-13.1,0.2-19.6,0.1c-13.1-0.2-26.1-1-39.2-2.4c-9.4-1-18.4,9-18,18
					C36.1,209.8,43.6,216.2,53.7,217.2L53.7,217.2z"/>
			</g>
		</g>
	</g>
	<g id="Layer_4">
		<g>
			<g>
				<path class="st2" d="M332.9,151.1c27.6,0,55.1,0,82.7,0c9.4,0,18.4-8.3,18-18c-0.4-9.8-7.9-18-18-18c-27.6,0-55.1,0-82.7,0
					c-9.4,0-18.4,8.3-18,18C315.3,142.9,322.8,151.1,332.9,151.1L332.9,151.1z"/>
			</g>
		</g>
		<g>
			<g>
				<path class="st2" d="M376.9,251.1c-17.1,0-34.2,0-51.3,0c-9.4,0-18.4,8.3-18,18c0.4,9.8,7.9,18,18,18c17.1,0,34.2,0,51.3,0
					c9.4,0,18.4-8.3,18-18C394.4,259.3,387,251.1,376.9,251.1L376.9,251.1z"/>
			</g>
		</g>
		<g>
			<g>
				<path class="st2" d="M111.5,174.4c-19.1,0-38.2,0-57.3,0c-9.4,0-18.4,8.3-18,18c0.4,9.8,7.9,18,18,18c19.1,0,38.2,0,57.3,0
					c9.4,0,18.4-8.3,18-18C129.1,182.7,121.6,174.4,111.5,174.4L111.5,174.4z"/>
			</g>
		</g>
		<g>
			<g>
				<path class="st2" d="M369.9,127.1c0-9.3,0-18.7,0-28c0-11.6-18-11.6-18,0c0,9.3,0,18.7,0,28
					C351.9,138.7,369.9,138.7,369.9,127.1L369.9,127.1z"/>
			</g>
		</g>
		<g>
			<g>
				<path class="st2" d="M359.2,237.8c0,5.3,0,10.7,0,16c0,4.9,4.1,9,9,9c4.9,0,9-4.1,9-9c0-5.3,0-10.7,0-16c0-4.9-4.1-9-9-9
					C363.3,228.8,359.2,232.9,359.2,237.8L359.2,237.8z"/>
			</g>
		</g>
		<g>
			<g>
				<path class="st2" d="M106.5,180.4c0-8.2,0-16.4,0-24.7c0-11.6-18-11.6-18,0c0,8.2,0,16.4,0,24.7C88.5,192,106.5,192,106.5,180.4
					L106.5,180.4z"/>
			</g>
		</g>
	</g>
	<path class="st3" d="M323.1,188.2l-177,306.6c1.9,1.3,3.8,2.6,5.6,3.9c12.5,4.8,24.9,9.7,37.8,13.2c48.8,13,99.9,14.3,149.2,3.1
		c2.3-0.5,4.6-1.1,7-1.7c0.5-1.2,1.5-2.1,3.2-2.4c1.7-0.3,3.5-0.7,5.2-1.1c0.9-1.6,2.6-2.6,4.4-2.7c0.9,0,1.7,0.2,2.4,0.6
		c0.2-0.1,0.4-0.1,0.6-0.2c3.9-1.7,7.3-3.9,11.5-4.8c6.7-3.2,13.3-6.4,19.9-9.8c8.7-4.5,17.1-9.6,24-16.5c5.7-5.7,10.9-12,16.4-18
		c5.9-6.5,11.9-12.9,18.8-18.3c3.7-3,7.8-5.7,12.4-7.2L323.1,188.2z"/>
	<path class="st4" d="M203.9,152.9L51.5,416.8c4,2.4,7.5,5.4,11.2,8.4c1.7,1.4,1.8,4.1,0.8,6c7.1,5.3,13.7,11.2,20.4,16.9
		c12.9,11.1,26.5,21.1,40.3,31.1c9.1,6.6,18.3,13.1,27.5,19.6c12.5,4.8,24.9,9.7,37.8,13.2c48.8,13,99.9,14.3,149.2,3.1
		c2.3-0.5,4.6-1.1,7-1.7c0.5-1.2,1.5-2.1,3.2-2.4c1.7-0.3,3.5-0.7,5.2-1.1c0.9-1.6,2.6-2.6,4.4-2.7c0.9,0,1.7,0.2,2.4,0.6
		c0.2-0.1,0.4-0.1,0.6-0.2c3.9-1.7,7.3-3.9,11.5-4.8c6.7-3.2,13.3-6.4,19.9-9.8c1.9-1,3.8-2,5.6-3L203.9,152.9z"/>
	<g id="Layer_5">
		<g>
			<g>
				<path class="st5" d="M87.5,161.8c16.4,0,32.9,0,49.3,0c9.4,0,18.4-8.3,18-18c-0.4-9.8-7.9-18-18-18c-16.4,0-32.9,0-49.3,0
					c-9.4,0-18.4,8.3-18,18C70,153.5,77.4,161.8,87.5,161.8L87.5,161.8z"/>
			</g>
		</g>
		<g>
			<g>
				<path class="st5" d="M339.5,240.4c21.1,0,42.2,0,63.3,0c9.4,0,18.4-8.3,18-18c-0.4-9.8-7.9-18-18-18c-21.1,0-42.2,0-63.3,0
					c-9.4,0-18.4,8.3-18,18C322,232.2,329.4,240.4,339.5,240.4L339.5,240.4z"/>
			</g>
		</g>
		<g>
			<g>
				<path class="st5" d="M282.2,104.4c33.1,0,66.2,0,99.3,0c9.4,0,18.4-8.3,18-18c-0.4-9.8-7.9-18-18-18c-33.1,0-66.2,0-99.3,0
					c-9.4,0-18.4,8.3-18,18C264.6,96.2,272.1,104.4,282.2,104.4L282.2,104.4z"/>
			</g>
		</g>
	</g>
	<path d="M527.1,263.5c0,145.5-118,263.5-263.5,263.5S0,409.1,0,263.5S118,0,263.5,0S527.1,118,527.1,263.5z M263.5,13.2
		c-138.3,0-250.4,112.1-250.4,250.4s112.1,250.4,250.4,250.4s250.4-112.1,250.4-250.4S401.8,13.2,263.5,13.2z"/>
</g>
<g id="Layer_2">
</g>
</svg>
