<svg id="Layer_1" data-name="Layer 1" xmlns="http://www.w3.org/2000/svg" xmlns:xlink="http://www.w3.org/1999/xlink" viewBox="0 0 595.28 841.89"><defs><style>.cls-1,.cls-13,.cls-20,.cls-33,.cls-34{fill:none;}.cls-2{fill:#2a7339;}.cls-3,.cls-5{fill:#fff;}.cls-4{fill:#e3d64c;}.cls-20,.cls-5{stroke:#231f20;stroke-width:3px;}.cls-13,.cls-20,.cls-33,.cls-34,.cls-5{stroke-miterlimit:10;}.cls-6{fill:#231f20;}.cls-7{fill:#303e99;}.cls-8{fill:#e61e25;}.cls-9{fill:#592d90;}.cls-10{fill:#ed8e22;}.cls-11{fill:#37b44a;}.cls-12{fill:#5e3938;}.cls-13{stroke:#564720;}.cls-13,.cls-33,.cls-34{stroke-width:30px;}.cls-14{fill:#ebd296;}.cls-15{fill:#b7a57d;}.cls-16{fill:#ed2024;}.cls-17{fill:#47853e;}.cls-18{clip-path:url(#clip-path);}.cls-19{fill:#e4d649;}.cls-21{clip-path:url(#clip-path-2);}.cls-22{fill:#2d4396;}.cls-23{clip-path:url(#clip-path-3);}.cls-24{fill:#ec8d22;}.cls-25{clip-path:url(#clip-path-4);}.cls-26{fill:#5a2e8e;}.cls-27{clip-path:url(#clip-path-5);}.cls-28{fill:#38b44a;}.cls-29{clip-path:url(#clip-path-6);}.cls-30{fill:#5e3a38;}.cls-31{clip-path:url(#clip-path-7);}.cls-32{fill:#e42127;}.cls-33{stroke:#282111;}.cls-34{stroke:#282112;}</style><clipPath id="clip-path"><rect class="cls-1" x="297.82" y="625.77" width="81.81" height="59.89"/></clipPath><clipPath id="clip-path-2"><rect class="cls-1" x="215.66" y="478.84" width="82.06" height="59.89"/></clipPath><clipPath id="clip-path-3"><rect class="cls-1" x="338.59" y="699.17" width="82.06" height="59.89"/></clipPath><clipPath id="clip-path-4"><rect class="cls-1" x="133.66" y="625.74" width="82.06" height="59.89"/></clipPath><clipPath id="clip-path-5"><rect class="cls-1" x="174.64" y="701.2" width="82.06" height="59.89"/></clipPath><clipPath id="clip-path-6"><rect class="cls-1" x="379.73" y="625.74" width="82.06" height="59.89"/></clipPath><clipPath id="clip-path-7"><rect class="cls-1" x="297.71" y="478.77" width="82.06" height="59.89"/></clipPath></defs><title>Artboard 1</title><rect class="cls-2" x="-0.35" y="0.09" width="595.28" height="841.89"/><ellipse class="cls-3" cx="338.74" cy="508.78" rx="41.01" ry="42.36"/><ellipse class="cls-3" cx="256.71" cy="508.78" rx="41.01" ry="42.36"/><ellipse class="cls-3" cx="215.67" cy="729.12" rx="41.01" ry="42.36"/><ellipse class="cls-3" cx="379.72" cy="729.12" rx="41.01" ry="42.36"/><ellipse class="cls-4" cx="297.72" cy="435.18" rx="41.01" ry="42.36"/><circle class="cls-5" cx="297.72" cy="435.18" r="18.54"/><path class="cls-6" d="M300.73,443.9h-3.58V430.42a12.33,12.33,0,0,1-4.62,2.71v-3.25a10.33,10.33,0,0,0,3-1.74,6.61,6.61,0,0,0,2.25-3h2.9Z"/><ellipse class="cls-7" cx="379.75" cy="582.25" rx="41.01" ry="42.36"/><circle class="cls-5" cx="379.75" cy="582.25" r="18.54"/><path class="cls-6" d="M385.69,586.73v3.32H373.15a8.64,8.64,0,0,1,1.22-3.57,23.81,23.81,0,0,1,4-4.48,25.19,25.19,0,0,0,3-3.06,3.93,3.93,0,0,0,.74-2.19,2.49,2.49,0,0,0-.64-1.84,2.73,2.73,0,0,0-3.56,0,3.46,3.46,0,0,0-.76,2.24l-3.57-.36a5.85,5.85,0,0,1,2-4.24,6.71,6.71,0,0,1,4.2-1.29,6.07,6.07,0,0,1,4.34,1.49,4.88,4.88,0,0,1,1.58,3.71,6.46,6.46,0,0,1-.45,2.4,9.77,9.77,0,0,1-1.43,2.39,22.85,22.85,0,0,1-2.34,2.38q-1.69,1.55-2.15,2.06a6.08,6.08,0,0,0-.73,1Z"/><ellipse class="cls-8" cx="461.74" cy="729.12" rx="41.01" ry="42.36"/><circle class="cls-5" cx="461.74" cy="730.76" r="18.54"/><path class="cls-6" d="M455.47,734.53l3.46-.42a3.28,3.28,0,0,0,.89,2,2.44,2.44,0,0,0,1.76.7,2.42,2.42,0,0,0,1.87-.84,3.26,3.26,0,0,0,.76-2.27,3,3,0,0,0-.73-2.14,2.31,2.31,0,0,0-1.77-.79,6.23,6.23,0,0,0-1.64.27l.39-2.92a3.14,3.14,0,0,0,2.22-.63,2.25,2.25,0,0,0,.76-1.78,1.93,1.93,0,0,0-2-2.06,2.16,2.16,0,0,0-1.57.64,3,3,0,0,0-.79,1.86l-3.3-.56a7.37,7.37,0,0,1,1-2.71,4.68,4.68,0,0,1,1.93-1.59,6.51,6.51,0,0,1,2.78-.58,5.55,5.55,0,0,1,4.23,1.68,4.39,4.39,0,0,1,1.31,3.11q0,2.46-2.69,3.92a4.35,4.35,0,0,1,2.57,1.54,4.47,4.47,0,0,1,1,2.89,5.61,5.61,0,0,1-1.8,4.19,6.7,6.7,0,0,1-8.67.27A5.73,5.73,0,0,1,455.47,734.53Z"/><ellipse class="cls-9" cx="297.69" cy="729.12" rx="41.01" ry="42.36"/><circle class="cls-5" cx="297.69" cy="729.12" r="18.54"/><path class="cls-6" d="M298.56,737.84v-3.76h-7.64v-3.13l8.1-11.85h3v11.84h2.32v3.14H302v3.76Zm0-6.9v-6.38l-4.29,6.38Z"/><ellipse class="cls-10" cx="133.64" cy="729.12" rx="41.01" ry="42.36"/><circle class="cls-5" cx="133.64" cy="729.12" r="18.54"/><path class="cls-6" d="M127.55,733l3.57-.37a3.05,3.05,0,0,0,.9,1.92,2.45,2.45,0,0,0,1.73.71,2.4,2.4,0,0,0,1.9-.91,4.14,4.14,0,0,0,.78-2.74,3.76,3.76,0,0,0-.77-2.58,2.57,2.57,0,0,0-2-.86,3.64,3.64,0,0,0-2.76,1.36l-2.9-.42,1.83-9.72h9.46v3.35h-6.75l-.56,3.17a5.47,5.47,0,0,1,6.48,1.13,6.24,6.24,0,0,1,1.66,4.5,6.74,6.74,0,0,1-1.34,4.11,5.93,5.93,0,0,1-5.06,2.47,6.28,6.28,0,0,1-4.21-1.39A5.71,5.71,0,0,1,127.55,733Z"/><ellipse class="cls-11" cx="215.71" cy="582.25" rx="41.01" ry="42.36"/><circle class="cls-5" cx="215.71" cy="582.25" r="18.54"/><path class="cls-6" d="M221.68,576.88l-3.46.38a2.53,2.53,0,0,0-.66-1.58,1.93,1.93,0,0,0-1.39-.51,2.34,2.34,0,0,0-1.92,1q-.78,1-1,4.24a4.18,4.18,0,0,1,3.32-1.58,5.07,5.07,0,0,1,3.84,1.71A6.18,6.18,0,0,1,222,585a6.32,6.32,0,0,1-1.68,4.6,6.12,6.12,0,0,1-9-.46q-1.82-2.2-1.82-7.2t1.9-7.4a6.12,6.12,0,0,1,4.93-2.27,5.23,5.23,0,0,1,3.52,1.19A5.58,5.58,0,0,1,221.68,576.88Zm-8.11,7.8a4.06,4.06,0,0,0,.8,2.69,2.36,2.36,0,0,0,1.83.95,2.09,2.09,0,0,0,1.66-.78,3.91,3.91,0,0,0,.66-2.55,4.1,4.1,0,0,0-.71-2.67,2.29,2.29,0,0,0-3.53,0A3.51,3.51,0,0,0,213.57,584.68Z"/><ellipse cx="297.72" cy="582.25" rx="41.01" ry="42.36"/><circle class="cls-5" cx="297.72" cy="582.25" r="18.54"/><path class="cls-6" d="M294.65,580.9A4,4,0,0,1,292,577a4.52,4.52,0,0,1,1.46-3.45,7,7,0,0,1,8.28,0A4.5,4.5,0,0,1,303.2,577a4.07,4.07,0,0,1-.67,2.31,4.27,4.27,0,0,1-1.9,1.55,5,5,0,0,1,2.36,1.82,4.82,4.82,0,0,1,.81,2.76,5.63,5.63,0,0,1-1.65,4.2,6,6,0,0,1-4.39,1.62,6.64,6.64,0,0,1-4.24-1.34,5.22,5.22,0,0,1-2-4.33,5.35,5.35,0,0,1,.75-2.78A4.84,4.84,0,0,1,294.65,580.9Zm.41,4.39a3.29,3.29,0,0,0,.76,2.3,2.46,2.46,0,0,0,1.89.83,2.38,2.38,0,0,0,1.83-.8,3.3,3.3,0,0,0,.73-2.3,3,3,0,0,0-.74-2.11,2.45,2.45,0,0,0-1.87-.8,2.24,2.24,0,0,0-2,.9A3.31,3.31,0,0,0,295.05,585.3Zm.33-8A2.24,2.24,0,0,0,296,579a2.19,2.19,0,0,0,1.61.6,2.22,2.22,0,0,0,1.63-.6,2.25,2.25,0,0,0,.61-1.67,2.08,2.08,0,0,0-2.2-2.21,2.22,2.22,0,0,0-1.64.61A2.19,2.19,0,0,0,295.39,577.3Z"/><ellipse class="cls-3" cx="174.69" cy="655.7" rx="41.01" ry="42.36"/><ellipse class="cls-3" cx="420.76" cy="655.7" rx="41.01" ry="42.36"/><ellipse class="cls-12" cx="256.71" cy="655.7" rx="41.01" ry="42.36"/><circle class="cls-5" cx="256.71" cy="655.7" r="18.54"/><path class="cls-6" d="M250.57,649.33V646H262.8v2.6a19.24,19.24,0,0,0-3.08,4.28,25,25,0,0,0-2.39,5.93,22,22,0,0,0-.81,5.61h-3.45a24,24,0,0,1,1.6-7.89,26.33,26.33,0,0,1,4-7.19Z"/><path class="cls-13" d="M256.9,391.56,72.08,720.44c-17.53,31.19,5,69.71,40.79,69.71H482.52c35.78,0,58.31-38.52,40.79-69.71L338.48,391.56C320.6,359.74,274.79,359.74,256.9,391.56Z"/><rect x="323.33" y="94.15" width="16.98" height="16.19" rx="3.85" ry="3.85" transform="translate(90.27 -147.18) rotate(28.79)"/><polygon class="cls-14" points="0 734.59 0 670.71 323.82 99.17 338.7 107.39 0 734.59"/><rect x="255.07" y="94.15" width="16.98" height="16.19" rx="3.85" ry="3.85" transform="translate(543.78 64.91) rotate(151.21)"/><polygon class="cls-15" points="595.28 734.41 595.28 670.53 271.56 99.17 256.68 107.39 595.28 734.41"/><ellipse class="cls-3" cx="297.72" cy="52.47" rx="42.04" ry="43.42"/><circle class="cls-16" cx="297.72" cy="52.47" r="6.96"/><path class="cls-17" d="M528.39,821.24v0c0-2.17,1-3.39,2.49-3.39a3.3,3.3,0,0,1,1.55.4V818c0-1-.37-1.57-1.21-1.57a3.2,3.2,0,0,0-1.81.62l-.48-3a4.94,4.94,0,0,1,2.76-.8,2.91,2.91,0,0,1,2.77,1.41,6.53,6.53,0,0,1,.68,3.45v6.19h-2.72v-1.09a2.21,2.21,0,0,1-1.88,1.35C529.28,824.59,528.39,823.39,528.39,821.24Zm4.07-.94v-.46a1.22,1.22,0,0,0-.62-.18c-.54,0-.84.54-.84,1.21v0c0,.64.28,1.06.62,1.06S532.46,821.34,532.46,820.31Z"/><path class="cls-17" d="M535.92,813.28h2.58v5.38l1.33-2.57h2.8l-1.94,3.39,2.66,5h-2.76L539,822.14l-.51.89v1.41h-2.58Z"/><path class="cls-17" d="M542.78,819v0c0-3.22,1.4-5.67,3.37-5.67,2.33,0,3.41,2.67,3.41,6,0,.24,0,.52,0,.75h-4.21c.19.95.65,1.44,1.24,1.44s.9-.38,1.33-1.11l1.46,1.92c-.65,1.38-1.57,2.35-3,2.35C544.23,824.59,542.78,822.35,542.78,819Zm4.29-1c-.06-1-.43-1.62-.91-1.62s-.78.63-.86,1.62Z"/><path class="cls-17" d="M534.14,830.44h2.81v6h3.95v2.4h-6.75Z"/><path class="cls-17" d="M548.07,828.18h2.6l.67,4.28.79-4.32h2.17l.8,4.36.7-4.32h2.57l-2,10.7h-2.28l-.87-4.55-.9,4.55h-2.27Z"/><path class="cls-17" d="M558.8,828.3h2.72v2.12c.37-1.43,1-2.35,2.05-2.28v4.65h-.29c-1.15,0-1.76,1-1.76,3.36v2.68H558.8Z"/><path class="cls-17" d="M563.78,833.62v0c0-3.09,1.4-5.44,3.37-5.44,2.33,0,3.41,2.56,3.41,5.71,0,.23,0,.49,0,.72h-4.21c.19.91.65,1.39,1.24,1.39s.9-.36,1.33-1.06l1.46,1.84a3.35,3.35,0,0,1-3,2.26C565.23,839,563.78,836.85,563.78,833.62Zm4.29-.95c-.06-1-.43-1.56-.91-1.56s-.78.61-.86,1.56Z"/><path class="cls-17" d="M571.16,828.39h2.72v1.45c.42-.86,1.08-1.7,2-1.7,1.38,0,2.24,1.45,2.24,3.81v6.89h-2.72v-5.49c0-.9-.34-1.42-.74-1.42s-.78.52-.78,1.42v5.49h-2.72Z"/><path class="cls-17" d="M578.7,833.61v0c0-2.91,1.44-5.43,3.57-5.43,1.44,0,2.46,1.18,3,2.87l-2,1.75c-.23-.66-.52-1-1-1s-1,.8-1,1.82v0c0,1.08.43,1.86,1,1.86s.76-.38,1-1l2,1.78c-.59,1.73-1.58,2.83-3.14,2.83C580.15,839,578.7,836.51,578.7,833.61Z"/><path class="cls-17" d="M585.68,833.62v0c0-3.09,1.4-5.45,3.37-5.45,2.33,0,3.41,2.56,3.41,5.71,0,.23,0,.49,0,.72h-4.21c.19.91.65,1.39,1.24,1.39s.9-.36,1.33-1.06l1.46,1.84a3.35,3.35,0,0,1-3,2.26C587.13,839,585.68,836.85,585.68,833.62Zm4.29-.95c-.06-1-.43-1.56-.91-1.56s-.78.61-.86,1.56Z"/><polygon class="cls-17" points="516.36 828.14 518.82 825.4 536.95 825.4 536.95 828.14 516.36 828.14"/><polygon class="cls-17" points="520.13 828.02 518.11 826.19 523.2 820.53 524.67 822.97 520.13 828.02"/><polygon class="cls-17" points="534.14 826.08 536.95 826.99 536.95 835.75 534.14 835.75 534.14 826.08"/><ellipse class="cls-3" cx="338.72" cy="655.71" rx="41.01" ry="42.36"/><g class="cls-18"><ellipse class="cls-19" cx="338.72" cy="655.71" rx="41.01" ry="42.36"/></g><circle class="cls-5" cx="338.72" cy="655.71" r="18.54"/><path class="cls-6" d="M332.65,660.12l3.46-.38a2.51,2.51,0,0,0,.66,1.57,2,2,0,0,0,1.41.51,2.3,2.3,0,0,0,1.88-1q.78-1,1-4.23a4.27,4.27,0,0,1-3.37,1.57,5,5,0,0,1-3.8-1.7,6.2,6.2,0,0,1-1.6-4.42,6.29,6.29,0,0,1,1.69-4.58,6.11,6.11,0,0,1,9,.46q1.82,2.2,1.82,7.23t-1.9,7.38a6.14,6.14,0,0,1-4.94,2.27,5.22,5.22,0,0,1-3.54-1.17A5.63,5.63,0,0,1,332.65,660.12Zm8.1-7.82a4.08,4.08,0,0,0-.8-2.69,2.35,2.35,0,0,0-1.84-1,2.06,2.06,0,0,0-1.65.78,4,4,0,0,0-.66,2.57,4.07,4.07,0,0,0,.71,2.65,2.28,2.28,0,0,0,3.52,0A3.56,3.56,0,0,0,340.75,652.3Z"/><path class="cls-20" d="M332.38,666.58a9,9,0,0,0,12.68,0"/><path class="cls-17" d="M541.49,835.8v0c0-2.09,1-3.26,2.49-3.26a3.4,3.4,0,0,1,1.55.38v-.17c0-1-.37-1.51-1.21-1.51a3.28,3.28,0,0,0-1.81.59l-.48-2.9a5.08,5.08,0,0,1,2.76-.77,3,3,0,0,1,2.77,1.36,6.09,6.09,0,0,1,.68,3.32v6h-2.72v-1.05a2.21,2.21,0,0,1-1.88,1.3C542.37,839,541.49,837.88,541.49,835.8Zm4.07-.9v-.44a1.26,1.26,0,0,0-.62-.17c-.54,0-.84.52-.84,1.17v0c0,.61.28,1,.62,1S545.55,835.9,545.55,834.9Z"/><path class="cls-17" d="M521.4,822.54l1.83-2c.32.6.64,1,1.09,1s.78-.51.78-1.28v-6.9h2.73v6.83a5.13,5.13,0,0,1-.87,3.28,3,3,0,0,1-2.42,1.2A3.32,3.32,0,0,1,521.4,822.54Z"/><g class="cls-21"><ellipse class="cls-22" cx="256.7" cy="508.78" rx="41.01" ry="42.36"/></g><g class="cls-23"><ellipse class="cls-24" cx="379.66" cy="729.12" rx="41.01" ry="42.36"/></g><g class="cls-25"><ellipse class="cls-26" cx="174.69" cy="655.68" rx="41.01" ry="42.36"/></g><path class="cls-17" d="M542.78,819v0c0-3.09,1.4-5.45,3.37-5.45,2.33,0,3.41,2.56,3.41,5.71,0,.23,0,.49,0,.72h-4.21c.19.91.65,1.39,1.24,1.39s.9-.36,1.33-1.06l1.46,1.84a3.35,3.35,0,0,1-3,2.26C544.23,824.32,542.78,822.18,542.78,819Zm4.29-.95c-.06-1-.43-1.56-.91-1.56s-.78.61-.86,1.56Z"/><g class="cls-27"><ellipse class="cls-28" cx="215.63" cy="729.12" rx="41.01" ry="42.36"/></g><g class="cls-29"><ellipse class="cls-30" cx="420.76" cy="655.67" rx="41.01" ry="42.36"/></g><g class="cls-31"><ellipse class="cls-32" cx="338.74" cy="508.78" rx="41.01" ry="42.36"/></g><path class="cls-20" d="M209.37,592.68a9,9,0,0,0,12.68,0"/><circle class="cls-5" cx="338.59" cy="508.78" r="18.54"/><path class="cls-6" d="M335.07,517.5H331.5V504a12.34,12.34,0,0,1-4.62,2.71v-3.25a10.34,10.34,0,0,0,3-1.74,6.6,6.6,0,0,0,2.25-3h2.9Z"/><path class="cls-6" d="M348.14,517.5h-3.58V504a12.34,12.34,0,0,1-4.62,2.71v-3.25a10.34,10.34,0,0,0,3-1.74,6.6,6.6,0,0,0,2.25-3h2.9Z"/><circle class="cls-5" cx="256.72" cy="508.78" r="18.54"/><path class="cls-6" d="M252.48,517.5H248.9V504a12.34,12.34,0,0,1-4.62,2.71v-3.25a10.34,10.34,0,0,0,3-1.74,6.6,6.6,0,0,0,2.25-3h2.9Z"/><path class="cls-6" d="M263.87,498.76a5.1,5.1,0,0,1,4.24,1.94q1.82,2.29,1.82,7.6t-1.83,7.61a5.09,5.09,0,0,1-4.23,1.91,5.34,5.34,0,0,1-4.39-2.09q-1.67-2.09-1.67-7.47t1.83-7.59A5.09,5.09,0,0,1,263.87,498.76Zm0,3a1.79,1.79,0,0,0-1.16.41,2.78,2.78,0,0,0-.79,1.48,30.33,30.33,0,0,0,0,9.19,3.17,3.17,0,0,0,.83,1.64,1.83,1.83,0,0,0,2.31,0,2.78,2.78,0,0,0,.79-1.48,30.25,30.25,0,0,0,0-9.17,3.22,3.22,0,0,0-.83-1.64A1.76,1.76,0,0,0,263.87,501.73Z"/><circle class="cls-5" cx="420.65" cy="655.71" r="18.54"/><path class="cls-6" d="M416.41,664.43h-3.58V650.95a12.35,12.35,0,0,1-4.62,2.71v-3.25a10.34,10.34,0,0,0,3-1.74,6.6,6.6,0,0,0,2.25-3h2.9Z"/><path class="cls-6" d="M421.81,659.63l3.57-.37a3.05,3.05,0,0,0,.9,1.92,2.46,2.46,0,0,0,1.73.71,2.4,2.4,0,0,0,1.9-.91,4.14,4.14,0,0,0,.78-2.74,3.76,3.76,0,0,0-.77-2.58,2.57,2.57,0,0,0-2-.86,3.65,3.65,0,0,0-2.76,1.36l-2.9-.42,1.83-9.71h9.46v3.35h-6.75l-.56,3.17a5.47,5.47,0,0,1,6.48,1.13,6.23,6.23,0,0,1,1.66,4.49,6.74,6.74,0,0,1-1.34,4.11,5.93,5.93,0,0,1-5.05,2.47,6.27,6.27,0,0,1-4.21-1.39A5.71,5.71,0,0,1,421.81,659.63Z"/><circle class="cls-5" cx="379.75" cy="730.76" r="18.54"/><path class="cls-6" d="M375.51,739.49h-3.58V726a12.34,12.34,0,0,1-4.62,2.71v-3.25a10.34,10.34,0,0,0,3-1.74,6.6,6.6,0,0,0,2.25-3h2.9Z"/><path class="cls-6" d="M380.73,734.53l3.46-.42a3.28,3.28,0,0,0,.89,2,2.44,2.44,0,0,0,1.76.7,2.42,2.42,0,0,0,1.87-.84,3.26,3.26,0,0,0,.76-2.27,3,3,0,0,0-.73-2.14,2.31,2.31,0,0,0-1.77-.79,6.23,6.23,0,0,0-1.64.27l.39-2.92a3.14,3.14,0,0,0,2.22-.63,2.25,2.25,0,0,0,.76-1.78,1.93,1.93,0,0,0-2-2.06,2.16,2.16,0,0,0-1.57.64,3,3,0,0,0-.79,1.86l-3.3-.56a7.37,7.37,0,0,1,1-2.71,4.68,4.68,0,0,1,1.93-1.59,6.51,6.51,0,0,1,2.78-.58,5.55,5.55,0,0,1,4.23,1.68,4.39,4.39,0,0,1,1.31,3.11q0,2.46-2.69,3.92a4.35,4.35,0,0,1,2.57,1.54,4.47,4.47,0,0,1,1,2.89,5.61,5.61,0,0,1-1.8,4.19,6.7,6.7,0,0,1-8.67.27A5.73,5.73,0,0,1,380.73,734.53Z"/><circle class="cls-5" cx="215.71" cy="730.76" r="18.54"/><path class="cls-6" d="M211.47,739.49H207.9V726a12.34,12.34,0,0,1-4.62,2.71v-3.25a10.34,10.34,0,0,0,3-1.74,6.6,6.6,0,0,0,2.25-3h2.9Z"/><path class="cls-6" d="M223.84,739.49v-3.76H216.2V732.6l8.1-11.85h3v11.84h2.32v3.15H227.3v3.76Zm0-6.9v-6.38l-4.29,6.38Z"/><circle class="cls-5" cx="174.64" cy="655.68" r="18.54"/><path class="cls-6" d="M170.4,664.41h-3.58V650.92a12.33,12.33,0,0,1-4.62,2.71v-3.25a10.33,10.33,0,0,0,3-1.74,6.61,6.61,0,0,0,2.25-3h2.9Z"/><path class="cls-6" d="M187.83,661.08v3.32H175.29a8.64,8.64,0,0,1,1.22-3.57,23.81,23.81,0,0,1,4-4.48,25.25,25.25,0,0,0,3-3.06,3.93,3.93,0,0,0,.74-2.19,2.49,2.49,0,0,0-.64-1.84,2.73,2.73,0,0,0-3.56,0,3.46,3.46,0,0,0-.76,2.24l-3.57-.36a5.85,5.85,0,0,1,2-4.24,6.71,6.71,0,0,1,4.2-1.29,6.07,6.07,0,0,1,4.34,1.49,4.88,4.88,0,0,1,1.58,3.71,6.46,6.46,0,0,1-.45,2.4,9.73,9.73,0,0,1-1.43,2.39A22.85,22.85,0,0,1,183.6,658q-1.69,1.55-2.15,2.06a6.11,6.11,0,0,0-.73,1Z"/><polygon class="cls-17" points="541.81 817.52 539.66 816.4 541.29 813.28 544.26 813.28 541.81 817.52"/><path class="cls-33" d="M72.08,720.45c-17.53,31.19,5,69.71,40.79,69.71"/><path class="cls-34" d="M482.52,790.16c35.78,0,58.31-38.52,40.79-69.71"/><path class="cls-34" d="M337.52,390c-18.73-30.48-63.35-29.51-80.75,1.75"/><line class="cls-1" x1="481.46" y1="766.26" x2="481.46" y2="766.26"/></svg>