<svg id="Layer_1" data-name="Layer 1" xmlns="http://www.w3.org/2000/svg" viewBox="0 0 548.24 792.44"><defs><style>.cls-1{fill:#b3b3b3;}.cls-10,.cls-2,.cls-8{fill:#f2f2f2;}.cls-3{fill:#e6e6e6;}.cls-4{fill:#ccc;}.cls-5{fill:#29abe2;}.cls-6{fill:#1e7796;}.cls-7,.cls-9{fill:none;}.cls-10,.cls-7,.cls-8,.cls-9{stroke:#666;stroke-miterlimit:10;}.cls-10,.cls-7{stroke-width:5px;}.cls-8{stroke-width:3px;}</style></defs><title>footprint</title><circle class="cls-1" cx="274.12" cy="518.32" r="274.12"/><path class="cls-2" d="M348.21,256.34l-1.16.05-1.2.07c-7,.32-14.07.17-21.08.23H322.5c-7.46.1-14.92.25-22.36,0-6.45.08-12.89.32-19.22,1s-6.34-9.36,0-10c3.94-.4,7.93-.64,11.93-.79a4.83,4.83,0,0,1,2.24-.38q2.49.14,5,.21l4.7,0a270.52,270.52,0,0,0-36.56-2.49C120.08,244.2,0,364.29,0,512.41S120.08,780.63,268.21,780.63,536.42,660.54,536.42,512.41C536.42,392.15,457.26,290.37,348.21,256.34Z"/><circle class="cls-1" cx="419.55" cy="419.63" r="38.4"/><circle class="cls-1" cx="399.55" cy="523.15" r="38.4"/><circle class="cls-1" cx="274.12" cy="409.94" r="61.03"/><circle class="cls-3" cx="218.9" cy="660.45" r="34.04"/><g id="Layer_4" data-name="Layer 4"><path class="cls-4" d="M207.34,275.51a167,167,0,0,0,28.51.4c1.91-.14,1.93-3.14,0-3a167,167,0,0,1-28.51-.4c-1.92-.19-1.91,2.81,0,3Z"/><path class="cls-1" d="M183.59,271.45l2.52,6.24c.71,1.77,3.62,1,2.89-.8l-2.52-6.24c-.71-1.77-3.62-1-2.89.8Z"/><path class="cls-1" d="M193.43,278.59c6.25-1.44,13.55-.48,19.93-.46l19,.06a1.5,1.5,0,0,0,0-3l-21-.07c-6.12,0-12.74-.8-18.74.57-1.88.43-1.08,3.33.8,2.89Z"/><path class="cls-1" d="M170.82,251.91c2.08,6.8,3.72,13.68,1.94,20.75-.47,1.87,2.42,2.67,2.89.8,1.93-7.6.31-15-1.94-22.34-.56-1.84-3.46-1.06-2.89.8Z"/><path class="cls-1" d="M171.1,252.44a17.59,17.59,0,0,0,5.86,8.49c1.5,1.18,3.64-.93,2.12-2.12a14.87,14.87,0,0,1-5.09-7.17c-.6-1.83-3.49-1-2.89.8Z"/><path class="cls-1" d="M193.13,274a22.85,22.85,0,0,0,5.57,2.94c1.81.67,2.6-2.23.8-2.89a20.08,20.08,0,0,1-4.85-2.64c-1.56-1.14-3.06,1.46-1.51,2.59Z"/><path class="cls-1" d="M184.59,282.28c13.51,0,13.53-21,0-21s-13.53,21,0,21Z"/><path class="cls-1" d="M182.82,280.73q30.6,1.39,61.22-.12c9.68-.47,19.25.57,28.9.25,9.39-.31,19.12-2.47,28.46-.76l2.79-20.62a67.43,67.43,0,0,0-20,1.54c-11.37,2.49-9.11,21.72,2.79,20.62a545.39,545.39,0,0,1,60.59-2.21c13.52.26,13.52-20.74,0-21A545.39,545.39,0,0,0,287,260.64l2.79,20.62a47.94,47.94,0,0,1,14.39-.79c11.68.95,14.46-18.5,2.79-20.62-10.26-1.87-20-.85-30.35-.18s-20.44-.64-30.69-.15c-21,1-42.07,1.17-63.12.21-13.51-.61-13.48,20.39,0,21Z"/><path class="cls-1" d="M195,277.16c4.06-3.52,4.71-10.17,2-14.66a12.49,12.49,0,0,0-5-4.55,14.24,14.24,0,0,0-4.65-1.4c-3.25-.44.58.15,1.25.58l4.83,6.28a34.16,34.16,0,0,0-2-4.63c-.1-.16-.69-1.3-.85-1.32l.72,2.89q-.18-1.65-.46-3.28c-1.53-5.63-5.94-8.79-11.68-9.25-6.3-.5-12.58,7.2-10.12,13.29a23.36,23.36,0,0,1,.93,2.66q.24.91.4,1.84-.21-1.62-.12-.46c0,.31,0,3.2.07,1.89s-.45,1.87-.56,2.28c-1.52,5.28,1.85,11.67,7.33,12.92A10.7,10.7,0,0,0,190,274.9a30.26,30.26,0,0,0-.71-19.38l-10.12,13.29.62,0-7.42-3.08-1.94-4.45.38,2.79a15.69,15.69,0,0,0,1.48,3.58A6.46,6.46,0,0,0,173,269c.89,1-.83-2.2.09-.05,1.17,2.73,2.55,5.08,5.27,6.55a12.84,12.84,0,0,0,3.6,1.31l1.77.24q5.53,1-4.71-3.47l-1.43-5.3.23-1.72,2.7-4.63-.4.35c-4.17,3.61-4,11.2,0,14.85,4.44,4.07,10.41,3.85,14.85,0Z"/><path class="cls-5" d="M188.42,279.53c13.51,0,13.53-21,0-21s-13.53,21,0,21Z"/><path class="cls-5" d="M188.42,279.53c13.51,0,13.53-21,0-21s-13.53,21,0,21Z"/><path class="cls-5" d="M168,255.7l.69,16a10.72,10.72,0,0,0,10.5,10.5q57,1.73,114-2.2c5.66-.39,10.5-4.55,10.5-10.5,0-5.38-4.81-10.89-10.5-10.5q-56.93,3.93-114,2.2l10.5,10.5-.69-16c-.58-13.46-21.59-13.53-21,0Z"/><path class="cls-5" d="M295.95,279.06a18.44,18.44,0,0,0,10.9,2.34c3.58-.32,6.43-2.18,9.87-2.67,2.94-.42,6.53.56,9.47.74a101.06,101.06,0,0,0,12.17,0l-2.79-20.62c-3.8,1.38-7.83,1.06-11.82,1.26-4.82.25-9.64.63-14.44,1.11l2.79,20.62q14.75-2,29.44-4.51c3.81-.65,8-1.77,11.67-2.11,4.8-.44,10,1.22,14.88,1.41,13.51.52,13.49-20.48,0-21-5-.19-9.94-1.6-14.88-1.41s-10.3,1.66-15.3,2.52q-15.66,2.69-31.4,4.85c-11.6,1.61-9,21.8,2.79,20.62,5.41-.54,10.82-1,16.25-1.2,5.23-.23,10.62-.11,15.6-1.92s8.34-6.1,7.52-11.52c-.73-4.88-5-9.41-10.31-9.1a141.32,141.32,0,0,1-19.19-.62,24.78,24.78,0,0,0-8.83.91,13.85,13.85,0,0,0-3.45,1.24c-1.25.82-2.23,0-.35,1-11.91-6.37-22.53,11.75-10.6,18.13Z"/><path class="cls-5" d="M349.21,283.47a25.9,25.9,0,0,0,4.34-1.32,11.75,11.75,0,0,0,6.28-4.83A10.5,10.5,0,0,0,356.06,263c-2.33-1.23-5.52-2.09-8.09-1.06a25.9,25.9,0,0,1-4.34,1.32,10.5,10.5,0,0,0-2.51,19.19,11.51,11.51,0,0,0,8.09,1.06Z"/><path class="cls-5" d="M365.25,282.53c13.51,0,13.53-21,0-21s-13.53,21,0,21Z"/><path class="cls-5" d="M369.09,282.69c13.51,0,13.53-21,0-21s-13.53,21,0,21Z"/><path class="cls-5" d="M370.59,261.53a7.54,7.54,0,0,0,5.45-1.64c.71-.66-.35-1.72-1.06-1.06a6.27,6.27,0,0,1-4.39,1.2c-1-.08-1,1.42,0,1.5Z"/><path class="cls-6" d="M276.65,252.86v26.83a.75.75,0,0,0,1.5,0V252.86a.75.75,0,0,0-1.5,0Z"/><path class="cls-6" d="M271.65,252.86v26.83a.75.75,0,0,0,1.5,0V252.86a.75.75,0,0,0-1.5,0Z"/><path class="cls-6" d="M266.65,252.86v26.83a.75.75,0,0,0,1.5,0V252.86a.75.75,0,0,0-1.5,0Z"/><path class="cls-6" d="M261.65,252.86v26.83a.75.75,0,0,0,1.5,0V252.86a.75.75,0,0,0-1.5,0Z"/><path class="cls-6" d="M256.65,252.86v26.83a.75.75,0,0,0,1.5,0V252.86a.75.75,0,0,0-1.5,0Z"/><path class="cls-6" d="M251.65,252.86v26.83a.75.75,0,0,0,1.5,0V252.86a.75.75,0,0,0-1.5,0Z"/><path class="cls-6" d="M246.65,252.86v26.83a.75.75,0,0,0,1.5,0V252.86a.75.75,0,0,0-1.5,0Z"/><path class="cls-6" d="M241.65,252.86v26.83a.75.75,0,0,0,1.5,0V252.86a.75.75,0,0,0-1.5,0Z"/><path class="cls-6" d="M236.65,252.86v26.83a.75.75,0,0,0,1.5,0V252.86a.75.75,0,0,0-1.5,0Z"/><path class="cls-6" d="M231.65,252.86v26.83a.75.75,0,0,0,1.5,0V252.86a.75.75,0,0,0-1.5,0Z"/><path class="cls-6" d="M226.65,252.86v26.83a.75.75,0,0,0,1.5,0V252.86a.75.75,0,0,0-1.5,0Z"/><path class="cls-6" d="M221.65,252.86v26.83a.75.75,0,0,0,1.5,0V252.86a.75.75,0,0,0-1.5,0Z"/><path class="cls-6" d="M216.65,252.86v26.83a.75.75,0,0,0,1.5,0V252.86a.75.75,0,0,0-1.5,0Z"/><path class="cls-6" d="M211.65,252.86v26.83a.75.75,0,0,0,1.5,0V252.86a.75.75,0,0,0-1.5,0Z"/><path class="cls-6" d="M206.65,252.86v26.83a.75.75,0,0,0,1.5,0V252.86a.75.75,0,0,0-1.5,0Z"/><path class="cls-6" d="M201.65,252.86v26.83a.75.75,0,0,0,1.5,0V252.86a.75.75,0,0,0-1.5,0Z"/><path class="cls-6" d="M196.65,252.86v26.83a.75.75,0,0,0,1.5,0V252.86a.75.75,0,0,0-1.5,0Z"/><path class="cls-6" d="M191.65,252.86v26.83a.75.75,0,0,0,1.5,0V252.86a.75.75,0,0,0-1.5,0Z"/><path class="cls-6" d="M186.65,252.86v26.83a.75.75,0,0,0,1.5,0V252.86a.75.75,0,0,0-1.5,0Z"/><path class="cls-6" d="M181.65,252.86v26.83a.75.75,0,0,0,1.5,0V252.86a.75.75,0,0,0-1.5,0Z"/><path class="cls-6" d="M176.65,252.86v26.83a.75.75,0,0,0,1.5,0V252.86a.75.75,0,0,0-1.5,0Z"/><path class="cls-6" d="M376.81,252.86v26.83a.75.75,0,0,0,1.5,0V252.86a.75.75,0,0,0-1.5,0Z"/><path class="cls-6" d="M371.81,252.86v26.83a.75.75,0,0,0,1.5,0V252.86a.75.75,0,0,0-1.5,0Z"/><path class="cls-6" d="M366.81,252.86v26.83a.75.75,0,0,0,1.5,0V252.86a.75.75,0,0,0-1.5,0Z"/><path class="cls-6" d="M361.81,252.86v26.83a.75.75,0,0,0,1.5,0V252.86a.75.75,0,0,0-1.5,0Z"/><path class="cls-6" d="M356.81,252.86v26.83a.75.75,0,0,0,1.5,0V252.86a.75.75,0,0,0-1.5,0Z"/><path class="cls-6" d="M351.81,252.86v26.83a.75.75,0,0,0,1.5,0V252.86a.75.75,0,0,0-1.5,0Z"/><path class="cls-6" d="M346.81,252.86v26.83a.75.75,0,0,0,1.5,0V252.86a.75.75,0,0,0-1.5,0Z"/><path class="cls-6" d="M341.81,252.86v26.83a.75.75,0,0,0,1.5,0V252.86a.75.75,0,0,0-1.5,0Z"/><path class="cls-6" d="M336.81,252.86v26.83a.75.75,0,0,0,1.5,0V252.86a.75.75,0,0,0-1.5,0Z"/><path class="cls-6" d="M331.81,252.86v26.83a.75.75,0,0,0,1.5,0V252.86a.75.75,0,0,0-1.5,0Z"/><path class="cls-6" d="M326.81,252.86v26.83a.75.75,0,0,0,1.5,0V252.86a.75.75,0,0,0-1.5,0Z"/><path class="cls-6" d="M321.81,252.86v26.83a.75.75,0,0,0,1.5,0V252.86a.75.75,0,0,0-1.5,0Z"/><path class="cls-6" d="M316.81,252.86v26.83a.75.75,0,0,0,1.5,0V252.86a.75.75,0,0,0-1.5,0Z"/><path class="cls-6" d="M311.81,252.86v26.83a.75.75,0,0,0,1.5,0V252.86a.75.75,0,0,0-1.5,0Z"/><path class="cls-6" d="M306.81,252.86v26.83a.75.75,0,0,0,1.5,0V252.86a.75.75,0,0,0-1.5,0Z"/><path class="cls-6" d="M301.81,252.86v26.83a.75.75,0,0,0,1.5,0V252.86a.75.75,0,0,0-1.5,0Z"/><path class="cls-6" d="M296.81,252.86v26.83a.75.75,0,0,0,1.5,0V252.86a.75.75,0,0,0-1.5,0Z"/><path class="cls-6" d="M291.81,252.86v26.83a.75.75,0,0,0,1.5,0V252.86a.75.75,0,0,0-1.5,0Z"/><path class="cls-6" d="M286.81,252.86v26.83a.75.75,0,0,0,1.5,0V252.86a.75.75,0,0,0-1.5,0Z"/><path class="cls-6" d="M281.81,252.86v26.83a.75.75,0,0,0,1.5,0V252.86a.75.75,0,0,0-1.5,0Z"/><path class="cls-6" d="M276.81,252.86v26.83a.75.75,0,0,0,1.5,0V252.86a.75.75,0,0,0-1.5,0Z"/></g><g id="Layer_5" data-name="Layer 5"><path class="cls-2" d="M216.26,217.19l-4.43,4-2.21,2q-1.43,1.17-.11.28c.76,0,2.75,0,1.08-.56a23.09,23.09,0,0,1-2.51-.11q1.43.19-.13-.1c-5.88-1.21-9.88-3.51-15.59-7.13-6.84-4.34-16.54-1.43-20.52,5.38-4.23,7.22-1.48,16.17,5.38,20.52,9.2,5.84,19.11,10.18,30,11.23,5.69.55,11.69-.07,16.72-3s9.24-7.48,13.5-11.32c6-5.42,5.52-15.7,0-21.21-6-6-15.17-5.44-21.21,0Z"/><path class="cls-2" d="M168.89,227.36a25.39,25.39,0,0,0-.11,10.85,10,10,0,0,0,.44,1.68,26.71,26.71,0,0,0,2.22,5,15.67,15.67,0,0,0,9,6.89A15.33,15.33,0,0,0,192,250.23c3.2-2.06,6-5.14,6.89-9a15.38,15.38,0,0,0-1.51-11.56,10.92,10.92,0,0,1-.56-1l1.51,3.58a9.13,9.13,0,0,1-.62-2.23l.54,4a9.44,9.44,0,0,1,0-1.93l-.54,4a7.35,7.35,0,0,1,.14-.76,15.94,15.94,0,0,0-1.51-11.56,15.29,15.29,0,0,0-9-6.89c-3.84-.87-8.15-.69-11.56,1.51-3.17,2-6.09,5.15-6.89,9Z"/><path class="cls-2" d="M201.79,252.53c21-1.31,41.4.93,62.21,3.34,21.19,2.46,42.45,4.13,63.78,4.64,7.85.19,15.36-7,15-15a15.29,15.29,0,0,0-15-15c-21.32-.51-42.59-2.19-63.78-4.64-20.81-2.41-41.22-4.65-62.21-3.34-7.82.49-15.38,6.55-15,15,.35,7.71,6.61,15.52,15,15Z"/><path class="cls-2" d="M334.44,259.25l28.13-2c7.81-.55,15.38-6.51,15-15-.34-7.66-6.62-15.59-15-15l-28.13,2c-7.81.55-15.38,6.51-15,15,.34,7.66,6.62,15.59,15,15Z"/><path class="cls-2" d="M174.49,213.19q-.24,3.55.18.77l14.46-11a10.46,10.46,0,0,1,2.4.46l6.89,9-.18-.79v8c.7-3.39,1.92-6.37,2-9.93a29.2,29.2,0,0,0-.54-5.72,17.39,17.39,0,0,0-.45-2.13q-1-4.51-1,6.36l-5.38,5.38.87-.58-7.57,2c8-.88,16.44,0,24.45.17l12.89.24c2.69.06,7.11.12,8.6.3,7.37.88,14.54,3.81,21.59,5.94a202.81,202.81,0,0,0,22.88,5.46L266.1,208.65l5.89-6.41-1.32.23a26.22,26.22,0,0,0-4.17.67l-6.8,1.09a120.75,120.75,0,0,1-15.44,1.7c-10.79.37-20.24-1.12-30.49-2.79-7.71-1.26-16.52,2-18.45,10.48-1.64,7.22,2.2,17.1,10.48,18.45,15.3,2.49,30.71,5,46.24,3.28,7.8-.86,15.54-2.17,23.28-3.41,8.91-1.43,17.7-5.53,19.71-15.31,1.52-7.37-2.09-16.94-10.48-18.45-12.12-2.18-23.58-6-35.39-9.33-13.27-3.74-26.89-3.47-40.54-3.71-6.59-.12-13.25-.49-19.84-.31-9.69.27-17.75,5.64-19.11,15.71a17.88,17.88,0,0,0,.23,7.09l.25,1.43q.56,2.89.35-.14.19-3.18-.49.15l-.53,1.68a18.49,18.49,0,0,0-.44,6.83c1.22,9.07,10.75,16.46,20.08,15.39,6.95-.8,12.24-4.16,14.46-11,.92-2.82.82-5.82.89-8.74.18-7.85-7-15.36-15-15-8.28.37-14.8,6.59-15,15Z"/><path class="cls-2" d="M284.14,232.48,346.62,242c11.18,1.71,24.17,4.38,30.66-7.78s-2.46-27.63-15-30.9c-9.93-2.61-21.06-2.7-31.24-4-8.84-1.15-18.13-2.5-27.2-3.87-20.77-3.14-41.48-6.65-62.17-10.27v28.93c8.19-2,17.5-1.6,26.86-.85,9.2.74,18.39,1.91,27.64,1.77,5-.08,9.92-.79,14.9-.9a121.42,121.42,0,0,1,13.56.87,146,146,0,0,0,14.63.32,63.45,63.45,0,0,1,11.94.68c7.65,1.67,16.59-2.28,18.45-10.48,1.72-7.57-2.28-16.67-10.48-18.45-10.57-2.3-21-1.16-31.62-1.84-5.19-.33-10.34-1.17-15.55-1.11s-10.55.83-15.84.92c-21.1.33-41.49-4.88-62.47.15-6.14,1.47-11.3,8.09-11,14.46.28,6.17,4.4,13.31,11,14.46,21.66,3.8,43.34,7.46,65.09,10.71q17.08,2.55,34.21,4.76,7.81,1,15.63,1.92c1.63.19,3.26.39,4.89.56,3.09.32-1.91-.63.17.08q1.26.35,0-.15a4.23,4.23,0,0,1-2.51-2.57q-2.47-4-1.69-1.51.5,2.13-.19-1.22l2-7.57,1.1-1.41,6.62-3.86c-2,.77.11.54.94.11q1.12.15-.56-.09l-2.93-.45-8.79-1.35-18.55-2.84-37.1-5.68c-7.72-1.18-16.51,1.95-18.45,10.48-1.63,7.16,2.18,17.18,10.48,18.45Z"/><path class="cls-2" d="M335.08,224.89c-1,.14,1.8.24,1.91.26a13,13,0,0,1,3.09.92c4.82,2,9.07,4.36,14.43,4.43,10.33.13,19-5.94,21.68-16,2.72-10.32-1.58-20.51-11.11-25.21-9.14-4.51-17.81-6.94-28-4.87-6.16,1.26-11.29,8.25-11,14.46.32,7.23,4.61,11.77,11,14.46-2.46-1,1.21,1.28.17.28s1.73,1.55,2,1.79a69.3,69.3,0,0,1,5.14,5.79c.84,1,3.65,4.43,3.63,4.47.24-.37-1.53-2.7-.88-3.8-1,1.62-.71,5.45-.66,7.32.19,7.84,6.76,15.37,15,15,8.68-.39,14.31-6.6,15-15,1-12.24.28-23.81-5.09-35-3.18-6.66-12.42-8.91-18.73-6.14-7,3.09-10.31,10.2-8.68,17.7,1.3,6,2.49,12,3.53,18,.49,2.85,1.08,5.72,1.38,8.59-.18-1.66-.1-.26,0,.6.19,2.48.13,1.05.71-.25-3.29,7.4-2.15,16.12,5.38,20.52,6.39,3.74,17.21,2.06,20.52-5.38,4-9.1,3.41-16.71,1.9-26.33-1.25-8-2.76-15.88-4.48-23.75l-27.42,11.56q-.54-1.66.34.95.48,1.55.81,3.15l.16.87q.11,1.24.15,2.47a101.84,101.84,0,0,1-.47,12.46h30c-.11-4.34,1.29-11.46-1.92-17.43-2.08-3.86-5.22-7.18-8-10.58-6.07-7.49-12.5-13-21.49-16.77v28.93c-1.91.39,2.24.57.35.15.66.15,3.29,1.07,3.11,1a30.19,30.19,0,0,0,2.94,1.47L346.91,208q.6-1.85-.4.76l3.86-6.62c-2.33,3,4.89-1.5,5.4-1.66q2.64.65.66.11-1.34-.42-.63-.16a77.18,77.18,0,0,0-8.22-3.54c-6.77-2.2-13.54-1.91-20.47-1-8,1.09-12.42,11.39-10.48,18.45C319,223.08,327,226,335.08,224.89Z"/><path class="cls-2" d="M362.09,255.92c-.55.18-3.36-.55-1.88,0a18.48,18.48,0,0,0,2.11.68,15.23,15.23,0,0,0,3.61.55,3,3,0,0,0,.91,0q4.07-.68,1.41-.08l-4.54-1.23a11.46,11.46,0,0,0,8.7,1.22h-4.79l.46.1-5.38-4.14.2.35c2.34,4.09,8.25,5.85,12.31,3.23a9.17,9.17,0,0,0,3.23-12.31,9.36,9.36,0,0,0-5.58-4.49,17.07,17.07,0,0,0-2.85-.42q-4.33.58-.91.13l4.54,1.23a14.92,14.92,0,0,0-5.75-1.69,6.72,6.72,0,0,0-2.74.3l1.07-.15c1,0,1.59.3.26-.12-3-.95-6.09-1.56-9.2-.54-4.47,1.46-7.83,6.29-6.29,11.07,1.44,4.46,6.28,7.85,11.07,6.29Z"/><path class="cls-2" d="M363.87,254.91l.33.34a9.26,9.26,0,0,0,12.73,0,9.06,9.06,0,0,0,2.64-6.36l-.32-2.39a9,9,0,0,0-2.31-4l-.33-.34a9.26,9.26,0,0,0-12.73,0,9.06,9.06,0,0,0-2.64,6.36l.32,2.39a9,9,0,0,0,2.31,4Z"/><path class="cls-2" d="M201.31,193.78l-10.18-2.11c-2.36-.49-5.35-.52-6.93-2.38l2.31,4-.09,2.12-2.31,4,.63-.61-4,2.31q-3.25-.55-.49.3c4.55,1.72,9.87-1.91,11.07-6.29,1.39-5.06-1.72-9.35-6.29-11.07s-9.81-1.22-13.36,2.32a11.44,11.44,0,0,0-.93,14.79c5.57,7.8,17.16,8.25,25.76,10,4.76,1,9.73-1.39,11.07-6.29,1.23-4.46-1.5-10.08-6.29-11.07Z"/></g><path class="cls-7" d="M170,183.18H352.09a26.14,26.14,0,0,1,26.14,26.14v72.2a0,0,0,0,1,0,0H170a0,0,0,0,1,0,0V183.18A0,0,0,0,1,170,183.18Z"/><path class="cls-8" d="M170,244.2s19.34,30.07,43.59,26.07,164.65-12.85,164.65-12.85"/><line class="cls-7" x1="170" y1="183.18" x2="170" y2="281.52"/><path class="cls-2" d="M222.86,237a44,44,0,0,0,9.6,16.2c1.32,1.42,3.44-.71,2.12-2.12a40.39,40.39,0,0,1-8.83-14.87c-.61-1.82-3.51-1-2.89.8Z"/><path class="cls-2" d="M221.1,221l-1.49.21a16.78,16.78,0,0,0-9,6.89,11.16,11.16,0,0,0-1.78,5.58,11.36,11.36,0,0,0,.27,6l1.51,3.58a15.07,15.07,0,0,0,5.38,5.38l3.58,1.51a15.11,15.11,0,0,0,8,0l1.49-.21a16.78,16.78,0,0,0,9-6.89,11.16,11.16,0,0,0,1.78-5.58,11.36,11.36,0,0,0-.27-6L238,227.94a15.07,15.07,0,0,0-5.38-5.38L229.07,221a15.11,15.11,0,0,0-8,0Z"/><path class="cls-9" d="M275.92,182a5.4,5.4,0,0,1-.56,0l-48.81,48.81a2.31,2.31,0,0,0,0,3.27l9.45,9.45a2.31,2.31,0,0,0,3.27,0l57.28-57.28a2.31,2.31,0,0,0,0-3.27h0a2.34,2.34,0,0,0-1.31-.66A73.72,73.72,0,0,0,275.92,182Z"/><path class="cls-10" d="M170,2.5h80.41a17.8,17.8,0,0,1,17.8,17.8V183.18a0,0,0,0,1,0,0H170a0,0,0,0,1,0,0V2.5A0,0,0,0,1,170,2.5Z"/></svg>