<svg xmlns="http://www.w3.org/2000/svg" viewBox="0 0 500.29 765.45"><defs><style>.cls-1{fill:#e0451f;}.cls-2{font-size:138.27px;font-family:Gotham-Ultra, Gotham;}.cls-3{fill:#ef5a1f;}.cls-4{fill:#e8e8e8;stroke:#e8e8e8;}.cls-4,.cls-5{stroke-miterlimit:10;}.cls-5{fill:#fff;stroke:#fff;}</style></defs><title>Artboard 1</title><g id="Layer_1" data-name="Layer 1"><polygon class="cls-1" points="252.78 765.45 464.35 692.63 500.29 164.61 0 164.61 41.2 692.63 252.78 765.45"/><text class="cls-2" transform="translate(55.2 117.5) rotate(0.17) scale(0.98 1)">HTML</text><path class="cls-3" d="M252.42,193.53l2.4,543h.08v-.07l180.48-65L469.7,193.53Z"/></g><g id="Layer_2" data-name="Layer 2"><polygon class="cls-4" points="78.67 435.13 66.99 266.28 132.53 259.85 143.68 433.17 78.67 435.13"/><polygon class="cls-4" points="90.41 600.46 81.67 479.4 148.76 479.15 155.36 597.66 90.41 600.46"/><polygon class="cls-5" points="347.08 594.36 358.13 444.55 423.9 447.78 411.73 601.45 347.08 594.36"/><polygon class="cls-5" points="254.63 579.82 390.51 539.84 410.54 602.57 254.63 652.53 254.63 579.82"/><polygon class="cls-4" points="253.63 579.82 110.7 537.64 90.59 600.35 253.75 652.4 253.63 579.82"/><polygon class="cls-4" points="75.2 383.72 79.71 449.55 253.55 449.13 253.26 383.72 75.2 383.72"/><polygon class="cls-5" points="428.36 383.72 253.82 383.72 254.11 449.13 423.87 448.72 428.36 383.72"/><polygon class="cls-4" points="65.74 252.07 70.49 317.9 252.97 317.48 252.68 252.07 65.74 252.07"/><polygon class="cls-5" points="437.71 252.07 253.11 252.07 253.4 317.48 432.98 317.07 437.71 252.07"/></g></svg>