<?xml version="1.0" encoding="utf-8"?>
<!-- Generator: Adobe Illustrator 21.1.0, SVG Export Plug-In . SVG Version: 6.00 Build 0)  -->
<svg version="1.1" xmlns="http://www.w3.org/2000/svg" xmlns:xlink="http://www.w3.org/1999/xlink" x="0px" y="0px"
	 viewBox="0 0 500.3 765.4" style="enable-background:new 0 0 500.3 765.4;" xml:space="preserve">
<style type="text/css">
	.st0{fill:#E0451F;}
	.st1{font-family:'Gotham-Ultra';}
	.st2{font-size:138.2731px;}
	.st3{fill:#EF5A1F;}
	.st4{fill:#E8E8E8;stroke:#E8E8E8;stroke-miterlimit:10;}
	.st5{fill:#FFFFFF;stroke:#FFFFFF;stroke-miterlimit:10;}
</style>
<g id="Layer_1">
	<polygon class="st0" points="252.8,765.4 464.4,692.6 500.3,164.6 0,164.6 41.2,692.6 	"/>
	<text transform="matrix(0.9788 2.867767e-03 -2.930000e-03 1 55.2005 117.4981)" class="st1 st2">HTML</text>
	<path class="st3" d="M252.4,193.5l2.4,543c0,0,0.1,0,0.1,0v-0.1l180.5-65l34.3-477.9H252.4z"/>
</g>
<g id="Layer_2">
	<g>
		<polygon class="st4" points="78.7,435.1 67,266.3 132.5,259.8 143.7,433.2 		"/>
		<polygon class="st4" points="90.4,600.5 81.7,479.4 148.8,479.2 155.4,597.7 		"/>
		<polygon class="st5" points="347.1,594.4 358.1,444.5 423.9,447.8 411.7,601.5 		"/>
		<polygon class="st5" points="254.6,579.8 390.5,539.8 410.5,602.6 254.6,652.5 		"/>
		<polygon class="st4" points="253.6,579.8 110.7,537.6 90.6,600.4 253.7,652.4 		"/>
		<polygon class="st4" points="75.2,383.7 79.7,449.5 253.6,449.1 253.3,383.7 		"/>
		<polygon class="st5" points="428.4,383.7 253.8,383.7 254.1,449.1 423.9,448.7 		"/>
		<polygon class="st4" points="65.7,252.1 70.5,317.9 253,317.5 252.7,252.1 		"/>
		<polygon class="st5" points="437.7,252.1 253.1,252.1 253.4,317.5 433,317.1 		"/>
	</g>
</g>
</svg>
