<svg id="Layer_1" data-name="Layer 1" xmlns="http://www.w3.org/2000/svg" xmlns:xlink="http://www.w3.org/1999/xlink" viewBox="0 0 595.28 841.89"><defs><style>.cls-1,.cls-13,.cls-20,.cls-35,.cls-36{fill:none;}.cls-2{fill:#2a7339;}.cls-3,.cls-5{fill:#fff;}.cls-4{fill:#e3d64c;}.cls-20,.cls-5{stroke:#231f20;stroke-width:3px;}.cls-13,.cls-20,.cls-35,.cls-36,.cls-5{stroke-miterlimit:10;}.cls-33,.cls-6{font-size:26.08px;fill:#231f20;font-family:Arial-BoldMT, Arial;font-weight:700;}.cls-7{fill:#303e99;}.cls-8{fill:#e61e25;}.cls-9{fill:#592d90;}.cls-10{fill:#ed8e22;}.cls-11{fill:#37b44a;}.cls-12{fill:#5e3938;}.cls-13{stroke:#564720;}.cls-13,.cls-35,.cls-36{stroke-width:30px;}.cls-14{fill:#ebd296;}.cls-15{fill:#b7a57d;}.cls-16{fill:#ed2024;}.cls-17{fill:#47853e;}.cls-18{clip-path:url(#clip-path);}.cls-19{fill:#e4d649;}.cls-21{clip-path:url(#clip-path-2);}.cls-22{fill:#2d4396;}.cls-23{clip-path:url(#clip-path-3);}.cls-24{fill:#ec8d22;}.cls-25{clip-path:url(#clip-path-4);}.cls-26{fill:#5a2e8e;}.cls-27{clip-path:url(#clip-path-5);}.cls-28{fill:#38b44a;}.cls-29{clip-path:url(#clip-path-6);}.cls-30{fill:#5e3a38;}.cls-31{clip-path:url(#clip-path-7);}.cls-32{fill:#e42127;}.cls-33{letter-spacing:-0.06em;}.cls-34{letter-spacing:0em;}.cls-35{stroke:#282111;}.cls-36{stroke:#282112;}</style><clipPath id="clip-path"><rect class="cls-1" x="297.82" y="625.77" width="81.81" height="59.89"/></clipPath><clipPath id="clip-path-2"><rect class="cls-1" x="215.66" y="478.84" width="82.06" height="59.89"/></clipPath><clipPath id="clip-path-3"><rect class="cls-1" x="338.59" y="699.17" width="82.06" height="59.89"/></clipPath><clipPath id="clip-path-4"><rect class="cls-1" x="133.66" y="625.74" width="82.06" height="59.89"/></clipPath><clipPath id="clip-path-5"><rect class="cls-1" x="174.64" y="701.2" width="82.06" height="59.89"/></clipPath><clipPath id="clip-path-6"><rect class="cls-1" x="379.73" y="625.74" width="82.06" height="59.89"/></clipPath><clipPath id="clip-path-7"><rect class="cls-1" x="297.71" y="478.77" width="82.06" height="59.89"/></clipPath></defs><title>pool</title><rect class="cls-2" x="-0.35" y="0.09" width="595.28" height="841.89"/><ellipse class="cls-3" cx="338.74" cy="508.78" rx="41.01" ry="42.36"/><ellipse class="cls-3" cx="256.71" cy="508.78" rx="41.01" ry="42.36"/><ellipse class="cls-3" cx="215.67" cy="729.12" rx="41.01" ry="42.36"/><ellipse class="cls-3" cx="379.72" cy="729.12" rx="41.01" ry="42.36"/><ellipse class="cls-4" cx="297.72" cy="435.18" rx="41.01" ry="42.36"/><circle class="cls-5" cx="297.72" cy="435.18" r="18.54"/><text class="cls-6" transform="translate(290.47 443.9)">1</text><ellipse class="cls-7" cx="379.75" cy="582.25" rx="41.01" ry="42.36"/><circle class="cls-5" cx="379.75" cy="582.25" r="18.54"/><text class="cls-6" transform="translate(372.5 590.05)">2</text><ellipse class="cls-8" cx="461.74" cy="729.12" rx="41.01" ry="42.36"/><circle class="cls-5" cx="461.74" cy="730.76" r="18.54"/><text class="cls-6" transform="translate(454.49 739.49)">3</text><ellipse class="cls-9" cx="297.69" cy="729.12" rx="41.01" ry="42.36"/><circle class="cls-5" cx="297.69" cy="729.12" r="18.54"/><text class="cls-6" transform="translate(290.44 737.84)">4</text><ellipse class="cls-10" cx="133.64" cy="729.12" rx="41.01" ry="42.36"/><circle class="cls-5" cx="133.64" cy="729.12" r="18.54"/><text class="cls-6" transform="translate(126.39 737.84)">5</text><ellipse class="cls-11" cx="215.71" cy="582.25" rx="41.01" ry="42.36"/><circle class="cls-5" cx="215.71" cy="582.25" r="18.54"/><text class="cls-6" transform="translate(208.45 590.97)">6</text><ellipse cx="297.72" cy="582.25" rx="41.01" ry="42.36"/><circle class="cls-5" cx="297.72" cy="582.25" r="18.54"/><text class="cls-6" transform="translate(290.47 590.97)">8</text><ellipse class="cls-3" cx="174.69" cy="655.7" rx="41.01" ry="42.36"/><ellipse class="cls-3" cx="420.76" cy="655.7" rx="41.01" ry="42.36"/><ellipse class="cls-12" cx="256.71" cy="655.7" rx="41.01" ry="42.36"/><circle class="cls-5" cx="256.71" cy="655.7" r="18.54"/><text class="cls-6" transform="translate(249.46 664.42)">7</text><path class="cls-13" d="M256.9,391.56,72.08,720.44c-17.53,31.19,5,69.71,40.79,69.71H482.52c35.78,0,58.31-38.52,40.79-69.71L338.48,391.56C320.6,359.74,274.79,359.74,256.9,391.56Z"/><rect x="323.33" y="94.15" width="16.98" height="16.19" rx="3.85" ry="3.85" transform="translate(90.27 -147.18) rotate(28.79)"/><polygon class="cls-14" points="0 734.59 0 670.71 323.82 99.17 338.7 107.39 0 734.59"/><rect x="255.07" y="94.15" width="16.98" height="16.19" rx="3.85" ry="3.85" transform="translate(543.78 64.91) rotate(151.21)"/><polygon class="cls-15" points="595.28 734.41 595.28 670.53 271.56 99.17 256.68 107.39 595.28 734.41"/><ellipse class="cls-3" cx="297.72" cy="52.47" rx="42.04" ry="43.42"/><circle class="cls-16" cx="297.72" cy="52.47" r="6.96"/><path class="cls-17" d="M528.39,821.24v0c0-2.17,1-3.39,2.49-3.39a3.3,3.3,0,0,1,1.55.4V818c0-1-.37-1.57-1.21-1.57a3.2,3.2,0,0,0-1.81.62l-.48-3a4.94,4.94,0,0,1,2.76-.8,2.91,2.91,0,0,1,2.77,1.41,6.53,6.53,0,0,1,.68,3.45v6.19h-2.72v-1.09a2.21,2.21,0,0,1-1.88,1.35C529.28,824.59,528.39,823.39,528.39,821.24Zm4.07-.94v-.46a1.22,1.22,0,0,0-.62-.18c-.54,0-.84.54-.84,1.21v0c0,.64.28,1.06.62,1.06S532.46,821.34,532.46,820.31Z"/><path class="cls-17" d="M535.92,813.28h2.58v5.38l1.33-2.57h2.8l-1.94,3.39,2.66,5h-2.76L539,822.14l-.51.89v1.41h-2.58Z"/><path class="cls-17" d="M542.78,819v0c0-3.22,1.4-5.67,3.37-5.67,2.33,0,3.41,2.67,3.41,6,0,.24,0,.52,0,.75h-4.21c.19.95.65,1.44,1.24,1.44s.9-.38,1.33-1.11l1.46,1.92c-.65,1.38-1.57,2.35-3,2.35C544.23,824.59,542.78,822.35,542.78,819Zm4.29-1c-.06-1-.43-1.62-.91-1.62s-.78.63-.86,1.62Z"/><path class="cls-17" d="M534.14,830.44h2.81v6h3.95v2.4h-6.75Z"/><path class="cls-17" d="M548.07,828.18h2.6l.67,4.28.79-4.32h2.17l.8,4.36.7-4.32h2.57l-2,10.7h-2.28l-.87-4.55-.9,4.55h-2.27Z"/><path class="cls-17" d="M558.8,828.3h2.72v2.12c.37-1.43,1-2.35,2.05-2.28v4.65h-.29c-1.15,0-1.76,1-1.76,3.36v2.68H558.8Z"/><path class="cls-17" d="M563.78,833.62v0c0-3.09,1.4-5.44,3.37-5.44,2.33,0,3.41,2.56,3.41,5.71,0,.23,0,.49,0,.72h-4.21c.19.91.65,1.39,1.24,1.39s.9-.36,1.33-1.06l1.46,1.84a3.35,3.35,0,0,1-3,2.26C565.23,839,563.78,836.85,563.78,833.62Zm4.29-.95c-.06-1-.43-1.56-.91-1.56s-.78.61-.86,1.56Z"/><path class="cls-17" d="M571.16,828.39h2.72v1.45c.42-.86,1.08-1.7,2-1.7,1.38,0,2.24,1.45,2.24,3.81v6.89h-2.72v-5.49c0-.9-.34-1.42-.74-1.42s-.78.52-.78,1.42v5.49h-2.72Z"/><path class="cls-17" d="M578.7,833.61v0c0-2.91,1.44-5.43,3.57-5.43,1.44,0,2.46,1.18,3,2.87l-2,1.75c-.23-.66-.52-1-1-1s-1,.8-1,1.82v0c0,1.08.43,1.86,1,1.86s.76-.38,1-1l2,1.78c-.59,1.73-1.58,2.83-3.14,2.83C580.15,839,578.7,836.51,578.7,833.61Z"/><path class="cls-17" d="M585.68,833.62v0c0-3.09,1.4-5.45,3.37-5.45,2.33,0,3.41,2.56,3.41,5.71,0,.23,0,.49,0,.72h-4.21c.19.91.65,1.39,1.24,1.39s.9-.36,1.33-1.06l1.46,1.84a3.35,3.35,0,0,1-3,2.26C587.13,839,585.68,836.85,585.68,833.62Zm4.29-.95c-.06-1-.43-1.56-.91-1.56s-.78.61-.86,1.56Z"/><polygon class="cls-17" points="516.36 828.14 518.82 825.4 536.95 825.4 536.95 828.14 516.36 828.14"/><polygon class="cls-17" points="520.13 828.02 518.11 826.19 523.2 820.53 524.67 822.97 520.13 828.02"/><polygon class="cls-17" points="534.14 826.08 536.95 826.99 536.95 835.75 534.14 835.75 534.14 826.08"/><ellipse class="cls-3" cx="338.72" cy="655.71" rx="41.01" ry="42.36"/><g class="cls-18"><ellipse class="cls-19" cx="338.72" cy="655.71" rx="41.01" ry="42.36"/></g><circle class="cls-5" cx="338.72" cy="655.71" r="18.54"/><text class="cls-6" transform="translate(331.47 664.43)">9</text><path class="cls-20" d="M332.38,666.58a9,9,0,0,0,12.68,0"/><path class="cls-17" d="M541.49,835.8v0c0-2.09,1-3.26,2.49-3.26a3.4,3.4,0,0,1,1.55.38v-.17c0-1-.37-1.51-1.21-1.51a3.28,3.28,0,0,0-1.81.59l-.48-2.9a5.08,5.08,0,0,1,2.76-.77,3,3,0,0,1,2.77,1.36,6.09,6.09,0,0,1,.68,3.32v6h-2.72v-1.05a2.21,2.21,0,0,1-1.88,1.3C542.37,839,541.49,837.88,541.49,835.8Zm4.07-.9v-.44a1.26,1.26,0,0,0-.62-.17c-.54,0-.84.52-.84,1.17v0c0,.61.28,1,.62,1S545.55,835.9,545.55,834.9Z"/><path class="cls-17" d="M521.4,822.54l1.83-2c.32.6.64,1,1.09,1s.78-.51.78-1.28v-6.9h2.73v6.83a5.13,5.13,0,0,1-.87,3.28,3,3,0,0,1-2.42,1.2A3.32,3.32,0,0,1,521.4,822.54Z"/><g class="cls-21"><ellipse class="cls-22" cx="256.7" cy="508.78" rx="41.01" ry="42.36"/></g><g class="cls-23"><ellipse class="cls-24" cx="379.66" cy="729.12" rx="41.01" ry="42.36"/></g><g class="cls-25"><ellipse class="cls-26" cx="174.69" cy="655.68" rx="41.01" ry="42.36"/></g><path class="cls-17" d="M542.78,819v0c0-3.09,1.4-5.45,3.37-5.45,2.33,0,3.41,2.56,3.41,5.71,0,.23,0,.49,0,.72h-4.21c.19.91.65,1.39,1.24,1.39s.9-.36,1.33-1.06l1.46,1.84a3.35,3.35,0,0,1-3,2.26C544.23,824.32,542.78,822.18,542.78,819Zm4.29-.95c-.06-1-.43-1.56-.91-1.56s-.78.61-.86,1.56Z"/><g class="cls-27"><ellipse class="cls-28" cx="215.63" cy="729.12" rx="41.01" ry="42.36"/></g><g class="cls-29"><ellipse class="cls-30" cx="420.76" cy="655.67" rx="41.01" ry="42.36"/></g><g class="cls-31"><ellipse class="cls-32" cx="338.74" cy="508.78" rx="41.01" ry="42.36"/></g><path class="cls-20" d="M209.37,592.68a9,9,0,0,0,12.68,0"/><circle class="cls-5" cx="338.59" cy="508.78" r="18.54"/><text class="cls-33" transform="translate(324.81 517.5)">1<tspan class="cls-34" x="13.06" y="0">1</tspan></text><circle class="cls-5" cx="256.72" cy="508.78" r="18.54"/><text class="cls-6" transform="translate(242.22 517.5)">10</text><circle class="cls-5" cx="420.65" cy="655.71" r="18.54"/><text class="cls-6" transform="translate(406.15 664.43)">15</text><circle class="cls-5" cx="379.75" cy="730.76" r="18.54"/><text class="cls-6" transform="translate(365.25 739.49)">13</text><circle class="cls-5" cx="215.71" cy="730.76" r="18.54"/><text class="cls-6" transform="translate(201.21 739.49)">14</text><circle class="cls-5" cx="174.64" cy="655.68" r="18.54"/><text class="cls-6" transform="translate(160.13 664.41)">12</text><polygon class="cls-17" points="541.81 817.52 539.66 816.4 541.29 813.28 544.26 813.28 541.81 817.52"/><path class="cls-35" d="M72.08,720.45c-17.53,31.19,5,69.71,40.79,69.71"/><path class="cls-36" d="M482.52,790.16c35.78,0,58.31-38.52,40.79-69.71"/><path class="cls-36" d="M337.52,390c-18.73-30.48-63.35-29.51-80.75,1.75"/><line class="cls-1" x1="481.46" y1="766.26" x2="481.46" y2="766.26"/></svg>