<svg id="Layer_1" data-name="Layer 1" xmlns="http://www.w3.org/2000/svg" viewBox="0 0 319.42 319.42"><defs><style>.cls-1{fill:#f15a24;}.cls-2{fill:#29abe2;}.cls-3{fill:#fcee21;}.cls-4{fill:none;}.cls-5{fill:#84a6af;}.cls-6{fill:#87c6c4;}.cls-7{fill:#c2f2f2;}.cls-8{fill:#4e7272;}</style></defs><title>Artboard 1</title><path class="cls-1" d="M45.78,273.64a129.38,129.38,0,0,1-1.85,45.78,128.67,128.67,0,0,0,99.43-143.36A128.67,128.67,0,0,0,0,275.49,129.38,129.38,0,0,1,45.78,273.64Z"/><path class="cls-2" d="M27.93,291.49A32.43,32.43,0,0,1,27.47,303,32.25,32.25,0,0,0,52.39,267,32.25,32.25,0,0,0,16.46,292,32.43,32.43,0,0,1,27.93,291.49Z"/><path class="cls-3" d="M37.07,282.35a97.42,97.42,0,0,1-1.39,34.47,96.89,96.89,0,0,0,74.87-108,96.89,96.89,0,0,0-108,74.87A97.42,97.42,0,0,1,37.07,282.35Z"/><path class="cls-4" d="M366.5,27C358,21.3,349.66,15.42,341.58,9.18a4.24,4.24,0,0,1-5.2-2.38c-.49-1-1-2-1.54-3A221.85,221.85,0,0,1,310-19.64c-10.36-11.55-20-23.74-29.81-35.72-5.65-5.52-11.28-11.07-17-16.56-3.15-2.69-6.17-5.51-9-8.48l-4-3.35a144.45,144.45,0,0,1-42.37,98A144.69,144.69,0,0,1,92.36,56.12a145,145,0,0,0,289.35-9.33C376.65,40.2,371.66,33.54,366.5,27Z"/><path class="cls-5" d="M236.93,179.31C289.51,126.72,317.71,60.88,319.42,0,258.54,1.71,192.7,29.91,140.12,82.49S59.34,200.92,57.62,261.8C118.5,260.09,184.34,231.89,236.93,179.31Z"/><circle class="cls-6" cx="224.7" cy="92.07" r="37.75" transform="translate(0.71 185.86) rotate(-45)"/><rect class="cls-7" x="216.43" y="54.03" width="19.95" height="72.68" transform="translate(255.1 -151.71) rotate(75)"/><path class="cls-8" d="M256.67,62.75a42.62,42.62,0,1,0,0,60.28A42.62,42.62,0,0,0,256.67,62.75ZM201.1,118.32a36,36,0,1,1,50.86,0A36,36,0,0,1,201.1,118.32Z"/><polygon class="cls-7" points="118.34 188.34 30.19 219.93 58.47 248.21 118.34 188.34"/><polygon class="cls-7" points="132.13 202.13 98.17 287.9 72.26 262 132.13 202.13"/></svg>